<?xml version="1.0" encoding="UTF-8"?>
<svg id="_레이어_1" data-name="레이어_1" xmlns="http://www.w3.org/2000/svg" version="1.1" viewBox="0 0 104.29 107.72">
  <defs>
    <style>
      .st0 {
        fill: #4ca9e0;
      }

      .st1 {
        fill: #173b95;
      }

      .st2 {
        fill: #131a59;
      }
    </style>
  </defs>
  <path class="st0" d="M22.76,56.7c14.33,26.03,35.95,31.46,35.95,31.46,0,0-17.32-5.4-31.83-32.92-8.02-15.22-5.21-44.38,13.17-51.8h-22.03c-1.94,7.55-6.86,32.2,4.74,53.26Z"/>
  <path class="st1" d="M22.76,56.7C11.16,35.64,16.08,11,18.02,3.45h-3.43C6.53,3.45,0,9.98,0,18.03v.46s.72,15.93,17,40.79c16.28,24.86,41.71,28.88,41.71,28.88,0,0-21.62-5.43-35.95-31.46Z"/>
  <path class="st2" d="M96.85,15.86h-22.48c-10,0-17.94,2.43-23.84,7.3-5.9,4.87-8.84,11.07-8.84,18.58,0,6.07,2.18,11.28,6.54,15.63,3.93,3.93,9.65,7.22,17.17,9.87,5.3,1.88,9.03,3.72,11.21,5.51,2.18,1.79,3.27,4.02,3.27,6.66,0,2.91-1.18,5.19-3.53,6.86-2.35,1.67-5.75,2.5-10.19,2.5-2.75,0-5.43-.25-8.04-.73-3.87-.77-26.29-6.13-41.12-28.77C.72,34.43,0,18.49,0,18.49v44.57c0,7.8,3.7,15.11,9.96,19.77,7.76,5.78,18.31,12.35,30.58,16.62h0c2.67,1.41,6.18,2.63,10.52,3.68,4.57,1.1,9.26,1.66,13.96,1.66,11.36,0,20.16-2.68,26.4-8.05,5.64-4.85,8.46-11.11,8.46-18.77,0-6.04-1.82-11.13-5.46-15.26-3.64-4.13-9.32-7.6-17.04-10.41-6.17-2.3-10.29-4.17-12.34-5.62-2.49-1.79-3.73-3.96-3.73-6.51s1.07-4.47,3.22-6c2.14-1.53,5.28-2.3,9.4-2.3h22.94V15.86Z"/>
</svg>
